<?xml version="1.0" standalone="no"?>
<!DOCTYPE svg PUBLIC "-//W3C//DTD SVG 20010904//EN"
 "http://www.w3.org/TR/2001/REC-SVG-20010904/DTD/svg10.dtd">
<svg version="1.0" xmlns="http://www.w3.org/2000/svg"
 width="1092.000000pt" height="1092.000000pt" viewBox="0 0 1092.000000 1092.000000"
 preserveAspectRatio="xMidYMid meet">
<metadata>
Created by potrace 1.14, written by Peter Selinger 2001-2017
</metadata>
<g transform="translate(0.000000,1092.000000) scale(0.100000,-0.100000)"
fill="#000000" stroke="none">
<path d="M4228 10635 c-2 -1 -41 -5 -88 -9 -83 -6 -255 -37 -316 -57 -17 -5
-40 -11 -50 -14 -66 -14 -254 -84 -275 -102 -8 -7 -21 -13 -27 -13 -20 0 -184
-91 -297 -165 -533 -351 -1006 -970 -1345 -1760 -12 -27 -27 -63 -35 -80 -7
-16 -23 -56 -34 -87 -64 -177 -56 -165 -109 -171 -149 -17 -490 -197 -601
-315 -197 -210 -558 -894 -825 -1563 -68 -171 -99 -274 -111 -368 -4 -30 -9
-63 -11 -75 -3 -12 -6 -37 -9 -56 -2 -19 -8 -64 -14 -100 -5 -36 -12 -92 -16
-125 -3 -33 -8 -77 -11 -97 -17 -150 -26 -251 -41 -478 -10 -144 -9 -698 0
-845 9 -121 11 -144 32 -380 3 -33 8 -71 10 -85 2 -14 7 -50 10 -80 4 -30 10
-84 15 -120 5 -36 12 -87 15 -115 4 -27 11 -79 16 -115 6 -36 12 -80 15 -98 2
-18 16 -56 30 -85 30 -60 233 -370 246 -375 14 -6 9 -18 -25 -68 -25 -38 -39
-50 -63 -52 -17 -2 -75 -11 -130 -21 l-99 -17 -3 -1137 -2 -1137 4345 0 c2390
0 4345 2 4345 5 0 2 -13 34 -30 70 -16 36 -30 67 -30 70 0 9 -126 263 -164
330 -55 99 -102 157 -244 309 -87 92 -430 348 -772 576 -52 35 -98 68 -103 74
-4 6 -6 43 -5 81 l3 70 45 22 c25 12 90 31 145 42 88 17 218 60 325 107 19 8
44 19 55 24 243 101 531 256 725 389 158 109 229 166 336 272 l72 71 68 3 c79
3 157 12 229 27 28 5 61 11 75 14 46 9 144 46 215 81 180 90 321 266 327 409
1 46 -31 124 -72 176 -17 20 -30 44 -30 52 0 13 49 56 64 56 11 0 112 65 197
127 108 79 194 170 239 253 31 60 34 72 33 150 -1 142 -61 251 -164 297 -22 9
-39 19 -40 22 0 3 -2 44 -4 91 -4 121 -21 210 -60 328 -103 308 -349 653 -653
916 l-79 68 121 62 c214 108 406 245 530 376 67 72 147 184 160 227 7 21 59
53 260 157 119 61 147 101 150 209 2 64 4 71 31 94 87 74 156 145 175 182 21
41 21 54 5 141 -2 14 -7 47 -10 74 -6 52 -35 118 -67 153 l-20 22 25 50 c32
65 31 140 -4 178 -35 37 -128 105 -174 128 -22 11 -42 21 -45 23 -2 2 -4 47
-5 101 0 111 -6 125 -88 204 -59 56 -152 110 -219 128 -27 7 -49 16 -49 19 -1
3 -2 31 -3 62 -2 54 -4 58 -56 110 -224 218 -533 390 -843 469 -45 11 -85 24
-89 27 -4 4 -8 27 -9 52 -2 85 -39 265 -73 367 -133 393 -403 699 -767 871
-85 40 -219 88 -270 97 -15 3 -41 10 -56 16 -15 6 -29 10 -31 9 -2 -1 -78 9
-114 16 -89 16 -350 22 -428 11 -84 -13 -119 -19 -180 -33 -36 -9 -74 -17 -84
-19 -50 -11 -209 -61 -328 -104 -215 -78 -351 -138 -624 -274 l-161 -80 -54
40 c-313 230 -700 431 -984 510 -5 1 -35 10 -65 19 -102 29 -183 48 -280 64
-30 5 -71 12 -90 15 -35 6 -426 16 -432 10z"/>
</g>
</svg>
